HIERARCHY
ROOT Hips
{
 OFFSET 0.000000 0.000000 0.000000
 CHANNELS 6 Xposition Yposition Zposition Yrotation Xrotation Zrotation
 JOINT Chest
 {
  OFFSET 0.000000 9.585900 0.002600
  CHANNELS 3 Yrotation Xrotation Zrotation
  JOINT Chest2
  {
   OFFSET 0.000000 9.601200 -0.005300
   CHANNELS 3 Yrotation Xrotation Zrotation
   JOINT Chest3
   {
    OFFSET 0.000000 9.561800 0.000000
    CHANNELS 3 Yrotation Xrotation Zrotation
    JOINT Chest4
    {
     OFFSET 0.000000 9.552100 0.000000
     CHANNELS 3 Yrotation Xrotation Zrotation
     JOINT Neck
     {
      OFFSET 0.000000 14.453000 0.000000
      CHANNELS 3 Yrotation Xrotation Zrotation
      JOINT Head
      {
       OFFSET 0.000000 8.936500 -0.011300
       CHANNELS 3 Yrotation Xrotation Zrotation
       End Site
       {
        OFFSET 0.000000 17.073600 -0.006000
       }
      }
     }
     JOINT RightCollar
     {
      OFFSET -2.921100 9.558500 0.000000
      CHANNELS 3 Yrotation Xrotation Zrotation
      JOINT RightShoulder
      {
       OFFSET -13.519700 0.000000 0.000000
       CHANNELS 3 Yrotation Xrotation Zrotation
       JOINT RightElbow
       {
        OFFSET 0.000000 -29.696600 0.000000
        CHANNELS 3 Yrotation Xrotation Zrotation
        JOINT RightWrist
        {
         OFFSET 0.000000 -24.004700 0.000000
         CHANNELS 3 Yrotation Xrotation Zrotation
         End Site
         {
          OFFSET 0.000000 -17.728500 0.000000
         }
        }
       }
      }
     }
     JOINT LeftCollar
     {
      OFFSET 2.921100 9.558500 0.000000
      CHANNELS 3 Yrotation Xrotation Zrotation
      JOINT LeftShoulder
      {
       OFFSET 13.519700 0.000000 0.000000
       CHANNELS 3 Yrotation Xrotation Zrotation
       JOINT LeftElbow
       {
        OFFSET 0.000000 -29.696600 0.000000
        CHANNELS 3 Yrotation Xrotation Zrotation
        JOINT LeftWrist
        {
         OFFSET 0.000000 -24.004700 0.000000
         CHANNELS 3 Yrotation Xrotation Zrotation
         End Site
         {
          OFFSET 0.000000 -17.728500 0.000000
         }
        }
       }
      }
     }
    }
   }
  }
 }
 JOINT RightHip
 {
  OFFSET -7.771700 -0.012900 -0.001300
  CHANNELS 3 Yrotation Xrotation Zrotation
  JOINT RightKnee
  {
   OFFSET 0.000000 -40.869800 0.001200
   CHANNELS 3 Yrotation Xrotation Zrotation
   JOINT RightAnkle
   {
    OFFSET 0.000000 -39.717900 0.002100
    CHANNELS 3 Yrotation Xrotation Zrotation
    JOINT RightToe
    {
     OFFSET 0.000000 -4.965400 11.033500
     CHANNELS 3 Yrotation Xrotation Zrotation
     End Site
     {
      OFFSET 0.000000 -1.423100 5.872300
     }
    }
   }
  }
 }
 JOINT LeftHip
 {
  OFFSET 7.771700 -0.012900 -0.001300
  CHANNELS 3 Yrotation Xrotation Zrotation
  JOINT LeftKnee
  {
   OFFSET 0.000000 -40.869800 0.001200
   CHANNELS 3 Yrotation Xrotation Zrotation
   JOINT LeftAnkle
   {
    OFFSET 0.000000 -39.717900 0.002100
    CHANNELS 3 Yrotation Xrotation Zrotation
    JOINT LeftToe
    {
     OFFSET 0.000000 -4.965400 11.033500
     CHANNELS 3 Yrotation Xrotation Zrotation
     End Site
     {
      OFFSET 0.000000 -1.423100 5.872300
     }
    }
   }
  }
 }
}
MOTION
Frames: 6
Frame Time: 0.008333
-7.674943 55.050666 32.315925 -178.258705 -29.601507 -11.674777 1.460688 13.053227 6.378868 0.649521 7.772545 2.100771 0.874146 9.685334 2.631454 0.652636 7.728289 2.039484 -0.565591 19.851821 2.249574 -1.122639 -4.692426 2.498518 4.032513 0.042543 -3.307592 -9.838266 -28.538324 -0.347361 -42.755440 -63.225038 54.904929 1.863914 -1.711463 -35.428353 -8.662620 0.967895 -2.806764 2.392823 0.630136 1.033999 -114.487013 -66.838398 116.342249 12.026476 -16.950172 -3.411832 -17.301281 -35.580636 5.601419 53.981343 84.906116 49.440101 -0.523896 -20.454980 3.041214 -1.492240 2.757664 -0.679559 -17.924810 -48.064638 16.940804 171.980818 79.492981 166.746535 -2.227826 -16.756015 2.160504 -0.952209 -1.734155 -0.422708
-7.672727 55.052918 32.318313 -178.250230 -29.613097 -11.679176 1.460692 13.055369 6.374201 0.654371 7.759471 2.085404 0.867275 9.683706 2.617228 0.650559 7.736426 2.041347 -0.511669 19.864078 2.297107 -1.069075 -4.665340 2.561801 4.098237 -0.082007 -3.370389 -9.714869 -28.988939 -0.541276 -42.294031 -62.325417 54.104228 1.846836 -1.853798 -34.949367 -8.681977 0.950256 -2.795775 2.402237 0.595725 1.058900 -114.413791 -66.848240 116.272229 12.070671 -17.003107 -3.400400 -17.308467 -35.567831 5.598499 54.010059 84.899640 49.468056 -0.540619 -20.462281 3.041858 -1.483019 2.762560 -0.679480 -17.923550 -48.053350 16.939646 172.005552 79.496556 166.776556 -2.222316 -16.756170 2.159187 -0.959868 -1.731214 -0.427466
-7.669274 55.055059 32.320598 -178.244612 -29.625653 -11.683889 1.461300 13.059080 6.369572 0.655370 7.750007 2.067911 0.865249 9.683218 2.604891 0.655364 7.749996 2.067935 -0.459655 19.874569 2.321014 -1.005623 -4.634977 2.625933 4.170265 -0.219742 -3.461741 -9.600985 -29.430838 -0.737070 -41.915570 -61.365579 53.348419 1.815221 -2.053568 -34.366466 -8.696300 0.928366 -2.805242 2.395493 0.532461 1.078172 -114.446812 -66.837956 116.306579 12.113163 -16.994776 -3.377270 -17.316058 -35.554776 5.599252 54.027833 84.895674 49.485103 -0.556130 -20.467068 3.038776 -1.470030 2.767805 -0.675733 -17.919222 -48.040578 16.940034 172.033599 79.500633 166.811036 -2.214276 -16.759935 2.156601 -0.970185 -1.725649 -0.431243
-7.665238 55.057523 32.321778 -178.234544 -29.643767 -11.689023 1.462741 13.060173 6.357429 0.658711 7.738311 2.030453 0.863493 9.695004 2.620765 0.654150 7.750150 2.057765 -0.415088 19.894703 2.376272 -0.913826 -4.603800 2.665321 4.249172 -0.347635 -3.521568 -9.487356 -29.859108 -0.932497 -41.679481 -60.327090 52.695319 1.775444 -2.300756 -33.697819 -8.708298 0.913452 -2.793850 2.391177 0.496912 1.107748 -114.503790 -66.820502 116.371156 12.150277 -16.990680 -3.348930 -17.325286 -35.536189 5.595423 54.054903 84.893708 49.510518 -0.565657 -20.469403 3.033437 -1.453696 2.769100 -0.670204 -17.917819 -48.022694 16.935435 172.023817 79.500653 166.811003 -2.219137 -16.757759 2.155392 -0.969778 -1.726120 -0.438801
-7.660379 55.059616 32.323130 -178.227763 -29.659155 -11.692568 1.462936 13.063571 6.341539 0.660491 7.744409 2.034555 0.860310 9.691046 2.592521 0.654532 7.751102 2.047103 -0.311327 19.918531 2.431762 -0.845604 -4.580255 2.709162 4.326704 -0.477018 -3.583318 -9.355321 -30.268272 -1.131868 -41.676356 -59.183120 52.221866 1.727542 -2.573938 -32.963585 -8.722648 0.886321 -2.788837 2.392592 0.485579 1.148163 -114.543038 -66.806481 116.419707 12.182178 -17.004901 -3.320260 -17.332051 -35.521949 5.591083 54.090771 84.892366 49.546094 -0.567480 -20.470493 3.027211 -1.447289 2.770014 -0.667194 -17.915682 -48.007378 16.933687 172.032506 79.501823 166.826791 -2.212642 -16.757739 2.152980 -0.979683 -1.725177 -0.445554
-7.655534 55.061481 32.324079 -178.213760 -29.672812 -11.695446 1.475165 13.052153 6.313536 0.645839 7.762133 2.051847 0.862715 9.685320 2.564533 0.653732 7.751610 2.035762 -0.192670 19.944265 2.478656 -0.765975 -4.556386 2.745926 4.396082 -0.597262 -3.647649 -9.199771 -30.652270 -1.332425 -41.992380 -57.905494 52.002118 1.661495 -2.838164 -32.173023 -8.736894 0.876944 -2.775068 2.400861 0.494411 1.184926 -114.667968 -66.787790 116.544032 12.209584 -17.014014 -3.298818 -17.337870 -35.509412 5.579008 54.119893 84.892772 49.580029 -0.575561 -20.472107 3.025204 -1.436120 2.770494 -0.666742 -17.916489 -47.993619 16.925306 172.038847 79.503958 166.841257 -2.202001 -16.759379 2.145884 -0.989052 -1.721602 -0.448962
